<svg class="svg-icon" style="width: 1.005859375em; height: 1em;vertical-align: middle;fill: currentColor;overflow: hidden;" viewBox="0 0 1030 1024" version="1.1" xmlns="http://www.w3.org/2000/svg"><path d="M391.590396 480.453572H88.863176a88.863176 88.863176 0 0 1-88.863176-88.863176V88.863176a88.863176 88.863176 0 0 1 88.863176-88.863176h302.72722a88.863176 88.863176 0 0 1 88.863176 88.863176v302.72722a88.863176 88.863176 0 0 1-88.863176 88.863176zM88.863176 59.242117a29.621059 29.621059 0 0 0-29.621059 29.621059v302.72722a29.621059 29.621059 0 0 0 29.621059 29.621059h302.72722a29.621059 29.621059 0 0 0 29.621059-29.621059V88.863176a29.621059 29.621059 0 0 0-29.621059-29.621059zM941.653457 480.453572H638.926237a88.863176 88.863176 0 0 1-88.863177-88.863176V88.863176a88.863176 88.863176 0 0 1 88.863177-88.863176h302.72722a88.863176 88.863176 0 0 1 88.863176 88.863176v302.72722a88.863176 88.863176 0 0 1-88.863176 88.863176zM638.926237 59.242117a29.621059 29.621059 0 0 0-29.621059 29.621059v302.72722a29.621059 29.621059 0 0 0 29.621059 29.621059h302.72722a29.621059 29.621059 0 0 0 29.621058-29.621059V88.863176a29.621059 29.621059 0 0 0-29.621058-29.621059zM941.653457 1019.853052H638.926237a88.863176 88.863176 0 0 1-88.863177-88.863176V628.262655a88.863176 88.863176 0 0 1 88.863177-88.863176h302.72722a88.863176 88.863176 0 0 1 88.863176 88.863176v302.727221a88.863176 88.863176 0 0 1-88.863176 88.863176zM638.926237 598.641597a29.621059 29.621059 0 0 0-29.621059 29.621058v302.727221a29.621059 29.621059 0 0 0 29.621059 29.621058h302.72722a29.621059 29.621059 0 0 0 29.621058-29.621058V628.262655a29.621059 29.621059 0 0 0-29.621058-29.621058zM391.590396 1024H88.863176a88.863176 88.863176 0 0 1-88.863176-88.863176V632.409604a88.863176 88.863176 0 0 1 88.863176-88.863176h302.72722a88.863176 88.863176 0 0 1 88.863176 88.863176v302.72722a88.863176 88.863176 0 0 1-88.863176 88.863176zM88.863176 602.788545a29.621059 29.621059 0 0 0-29.621059 29.621059v302.72722a29.621059 29.621059 0 0 0 29.621059 29.621059h302.72722a29.621059 29.621059 0 0 0 29.621059-29.621059V632.409604a29.621059 29.621059 0 0 0-29.621059-29.621059z"  /></svg>