<svg class="svg-icon" style="width: 1em; height: 1em;vertical-align: middle;fill: currentColor;overflow: hidden;" viewBox="0 0 1024 1024" version="1.1" xmlns="http://www.w3.org/2000/svg"><path d="M887.978667 99.968c-25.429333-23.424-128.256-98.133333-357.376-99.2 0 0-270.122667-16.213333-401.706667 104.576C55.552 178.730667 29.781333 285.781333 27.050667 418.986667 24.277333 551.850667 20.778667 801.024 261.12 868.693333h0.213333l-0.213333 103.082667s-1.450667 41.770667 25.984 50.261333c33.237333 10.24 52.736-21.504 84.48-55.594666 17.450667-18.730667 41.472-46.421333 59.605333-67.498667 164.309333 13.738667 290.688-17.749333 305.024-22.4 33.152-10.837333 220.842667-34.816 251.434667-284.074667 31.488-256.896-15.232-419.413333-99.754667-492.672v0.170667z m27.818666 474.112c-26.24 208.042667-178.517333 221.312-206.08 230.229333-12.16 3.925333-123.52 31.488-262.997333 22.4 0 0-104.32 125.482667-136.32 158.08-5.162667 5.162667-11.562667 7.082667-15.402667 6.186667-5.76-1.237333-6.997333-7.68-6.997333-17.237333l0.64-170.922667c-0.64 0 0 0 0 0-203.562667-57.002667-191.36-268.842667-188.8-380.16 1.877333-110.762667 22.954667-201.642667 85.077333-263.125333 111.402667-101.162667 341.205333-85.845333 341.205334-85.845334 193.834667 0.682667 286.762667 59.093333 308.181333 78.762667 71.424 61.098667 107.904 207.573333 81.237333 422.101333l0.256-0.469333zM330.282667 212.608a34.56 34.56 0 0 1 26.837333 13.269333c0.170667 0.085333 24.746667 29.653333 35.413333 44.117334 10.026667 13.653333 23.509333 35.413333 30.336 47.573333 12.16 21.76 4.437333 44.032-7.338666 53.248l-24.149334 19.2c-12.16 9.770667-10.666667 27.861333-10.666666 27.861333s35.84 134.698667 168.917333 168.661334c0 0 18.176 1.664 27.904-10.496l19.242667-24.277334c9.088-12.16 31.317333-19.84 53.077333-7.722666 12.16 6.4 33.92 19.882667 47.616 30.037333 14.464 10.24 44.032 35.242667 44.202667 35.242667 14.08 11.562667 17.237333 29.397333 7.68 47.317333v0.682667a201.813333 201.813333 0 0 1-39.850667 48.682666h-0.341333c-13.397333 11.52-26.837333 17.92-40.277334 19.157334-1.28 0-3.2 0.682667-5.802666 0-5.76 0-11.52-1.237333-17.237334-2.602667v-0.597333c-20.48-5.76-54.4-20.48-110.762666-51.882667a671.36 671.36 0 0 1-93.397334-62.08 535.893333 535.893333 0 0 1-41.642666-37.12l-3.242667-1.194667-1.28-1.28-1.237333-1.237333c-14.122667-14.08-26.24-28.16-37.162667-41.813333-20.48-25.984-40.96-56.618667-61.397333-93.397334-31.36-56.32-46.08-90.24-51.84-110.762666H243.2a40.362667 40.362667 0 0 1-2.56-17.237334c-0.64-2.602667 0-4.48 0-6.016 1.28-12.757333 8.064-26.197333 19.541333-40.277333h0.213334c15.146667-16.64 31.488-30.037333 48.896-39.808a42.581333 42.581333 0 0 1 20.437333-5.76h0.682667l-0.128 0.512z m174.72-29.141333h4.949333l3.242667 0.085333h0.853333l3.797333 0.213333h21.802667l5.76 0.64h3.157333l6.4 0.682667h1.28l4.437334 0.64h0.682666l3.157334 0.64c1.962667 0 3.242667 0.682667 4.48 0.682667h3.882666l3.2 1.237333 2.56 0.682667 2.56 0.64 1.28 0.64h1.92l1.962667 0.682666h1.237333l3.157334 0.682667 1.92 0.597333 1.962666 0.682667 2.56 0.682667 1.28 0.597333c1.28 0 2.56 0.682667 3.882667 0.682667l1.877333 0.64 1.962667 0.682666 5.077333 1.877334 2.602667 1.322666 5.76 2.56 1.92 0.64 1.92 0.682667 3.84 1.92 2.602667 0.64 1.237333 0.64 3.242667 1.322667 1.237333 0.597333 2.602667 1.322667 1.92 0.597333 1.92 1.28 2.517333 1.28 1.962667 1.237333 1.28 0.682667 2.602666 1.28 1.877334 1.28 3.2 1.92 1.92 0.682667 3.157333 1.877333 0.682667 0.64 1.92 1.322667 3.84 3.157333 1.962666 1.28 1.877334 1.28 1.322666 0.597333 1.92 1.322667 3.157334 3.157333 2.602666 1.92 1.92 1.28 0.682667 0.64 1.237333 0.682667 3.157334 2.602667 1.962666 1.877333 1.28 1.28 1.92 1.237333 1.92 1.322667 1.237334 0.64 5.12 5.12 2.56 2.602667 5.76 5.76 1.322666 1.237333c0.682667 0.682667 1.92 1.92 2.602667 3.2l1.237333 1.28 7.082667 8.277333 1.92 2.56c0.597333 0.682667 0.597333 1.322667 1.237333 1.322667l3.84 5.76 1.92 1.92 3.84 5.12 3.242667 5.12 1.92 3.84 2.517333 4.48 1.92 3.84 0.682667 1.237333 1.237333 2.602667 3.242667 6.4 3.157333 6.357333 1.322667 3.2c2.517333 5.76 4.437333 11.52 6.997333 17.92 3.157333 8.32 5.76 17.237333 7.68 26.88 1.92 7.04 3.242667 13.44 4.48 20.48l1.237334 11.52 1.92 12.8c0.682667 5.162667 1.322667 10.922667 1.322666 16 0.597333 5.162667 0.597333 10.24 0.597334 15.317334v10.922666a4.181333 4.181333 0 0 1-0.597334 1.92c-0.682667 1.28-1.322667 1.92-2.602666 3.2-0.896 0.64-2.090667 1.962667-3.413334 1.962667-1.237333 0.597333-2.517333 0.597333-3.84 0.597333h-1.92a9.386667 9.386667 0 0 1-3.84-1.237333c-1.237333-0.682667-2.602667-1.28-3.157333-2.602667-0.682667-1.237333-1.92-2.602667-2.602667-3.84s-1.322667-2.56-1.322666-3.84v-15.317333a378.624 378.624 0 0 0-2.517334-27.264c-0.682667-6.229333-1.92-12.117333-2.602666-17.92 0-3.157333-0.682667-6.229333-1.237334-8.917333l-1.237333-6.4-1.621333-6.016-0.682667-3.84-1.92-6.4c-1.237333-5.12-3.157333-10.24-5.077333-15.36a47.232 47.232 0 0 0-4.48-10.197334l-1.237334-3.242666-5.76-11.52-1.322666-1.92a90.368 90.368 0 0 0-9.6-16.682667l-1.92-3.157333h-8.576l-2.730667-3.882667a71.594667 71.594667 0 0 0-7.68-10.197333l-5.333333-6.4-0.64-0.682667-1.962667-2.432-1.493333-1.92-3.2-3.157333-0.64-1.28-2.986667-2.56-1.92-1.962667-3.541333-3.2-1.706667-1.578667-1.962667-1.92-0.64-0.682666c-0.682667-0.64-1.92-1.92-3.2-2.56l-3.242666-2.645334-1.28-0.64-2.602667-1.962666-3.157333-2.56-1.92-1.536-1.28-0.682667-2.56-2.261333c0-0.682667-0.682667-0.682667-1.322667-0.682667l-1.237333-1.237333-0.64-0.682667v-0.554667l-1.28-0.597333-2.602667-1.578667-1.877333-1.322666-3.2-1.92-2.56-1.92-1.237334-0.682667-1.365333-0.554667h-3.84l-0.810667-0.682666-2.773333-1.493334-0.384-0.597333-1.28-0.682667-1.92-0.896h-0.512l-1.92-0.682666-1.066667-0.64-1.92-0.64-0.426666-0.469334-1.28-0.682666-2.261334-1.237334-1.28-0.64-3.84-1.28-3.157333-1.237333-5.845333-0.682667-1.877334-1.237333a3.541333 3.541333 0 0 0-1.962666-0.682667l-1.237334-0.64c-1.237333-0.469333-1.92-0.682667-3.2-1.28l-1.28-0.682666h-1.237333l-2.602667-1.237334-1.237333-0.682666-1.92-0.64h-3.925333c-0.341333 0-0.810667-0.213333-1.28-0.298667h-3.84l-1.92-0.682667h-0.64l-1.92-0.682666h-1.749334c-1.066667-0.597333-1.92-0.597333-2.986666-0.597334l-0.426667-0.682666-2.56-0.64c-1.28-0.682667-2.389333-0.682667-3.584-0.682667l-1.92-0.64-2.133333-0.682667-1.92-0.597333-2.602667-0.682667h-2.602667l-7.637333-0.938666h-3.84l-4.949333-0.64h-3.242667l-2.901333-0.341334h-1.28l-2.304-0.682666h-12.16l-0.426667-0.64h-2.602667a8.405333 8.405333 0 0 1-3.84-1.28c-1.28-0.682667-2.602667-1.237333-3.456-2.56l-1.28-1.962667c-1.237333-1.237333-1.237333-2.56-1.92-3.84-0.597333-1.194667-0.597333-2.517333-0.597333-3.797333s0-2.56 0.64-3.84c0.682667-1.237333 1.237333-2.56 2.602667-3.2 0.64-1.28 1.877333-1.877333 3.157333-2.56a8.533333 8.533333 0 0 1 3.84-1.28h2.602667l0.64 2.816z m23.637333 67.157333l1.578667 0.128 2.602666 0.256c0.341333 0 0.768 0 1.237334 0.128 0.938667 0 1.92 0.170667 3.2 0.256l2.56 0.341333 1.024 0.682667 1.92 0.64 2.048 0.64 1.92 0.682667h1.28l1.792 0.64 2.986666 0.64 2.389334 0.682666 1.109333 0.597334h3.114667l5.077333 1.194666 1.962667 0.64 1.92 0.64 1.92 0.682667s0.64 0 0.64 0.64l1.962666 0.64 1.877334 0.682667 1.92 0.682666c0.64 0 1.28 0.597333 1.962666 0.597334 0.298667 0 0.597333 0.682667 1.066667 0.682666l2.730667 1.28h1.237333l3.84 1.28 2.133333 1.237334 1.962667 1.28 4.608 1.92 2.56 0.64 1.322667 1.322666c1.92 0.597333 3.84 1.877333 5.76 2.517334l2.048 1.28 2.048 1.28 2.090666 1.237333c1.92 1.28 3.498667 1.962667 5.162667 3.242667l1.237333 0.597333 1.749334 1.322667 0.938666 0.64 3.2 1.92 1.578667 1.28 2.773333 1.834666 1.237334 0.64 1.28 0.64 1.962666 1.28 2.56 1.962667c0.64 0.597333 0.938667 0.597333 1.450667 1.237333 0.426667 0.64 0.682667 0.64 1.066667 1.28l1.408 1.28 1.536 1.237334 1.28 1.28 1.962666 1.962666 1.237334 1.28 0.682666 0.682667 3.84 3.797333 0.682667 0.682667c0 0.64 0.64 1.28 1.237333 1.28l0.682667 0.554667 1.92 1.962666 1.237333 1.92 1.28 1.28 1.92 2.56 1.962667 1.962667 3.84 5.077333 0.597333 1.237334 2.602667 3.242666 0.682667 1.237334 0.64 1.322666 0.64 1.237334 0.682666 1.28c0.682667 0.64 0.682667 1.28 1.237334 2.56l1.834666 3.242666 0.682667 0.64 1.237333 2.602667 1.322667 1.877333c0.597333 0.64 0.597333 1.237333 1.237333 1.92l1.28 1.92 1.28 2.602667 1.237334 2.517333 0.682666 1.962667c0.64 1.877333 1.92 3.2 2.56 5.12 0 0.64 0.64 1.237333 0.64 1.92l1.92 5.077333 2.602667 8.32c0 0.682667 0.64 1.92 0.64 2.602667l1.962667 5.76 1.877333 7.68 1.962667 10.24c0.597333 3.157333 0.597333 5.76 1.237333 9.002667 0.682667 5.077333 1.28 10.154667 1.28 15.317333l0.64 8.96v7.04c0 0.682667 0 1.237333-0.64 1.92l-1.877333 1.834667c-1.237333 0.981333-1.92 1.92-3.157334 2.602666a42.453333 42.453333 0 0 1-3.84 1.706667c-1.322667 0.682667-3.2 0.682667-4.48 0.682667-1.237333 0-2.602667-0.682667-3.84-1.28-0.682667 0-1.28-0.682667-1.92-0.896a7.082667 7.082667 0 0 1-3.2-2.773334c-1.28-1.28-1.962667-2.56-1.962666-3.882666l-0.597334-1.877334v-13.354666c0-5.674667-0.682667-10.922667-1.322666-16.426667a175.232 175.232 0 0 0-3.157334-17.92c-1.237333-3.84-1.92-7.68-3.2-11.093333l-1.28-3.882667-1.237333-3.2-0.682667-1.28-1.92-5.12-1.92-3.84-3.2-6.357333-2.944-5.12v-0.810667l-1.237333-2.005333-1.28-1.621334-1.92-3.2-1.962667-2.602666-3.797333-5.077334c-1.962667-2.602667-3.84-5.12-6.058667-7.594666-0.597333-0.64-1.237333-1.237333-1.237333-1.92l-1.28-1.237334-0.725333-0.682666-1.28-0.597334-1.28-1.152v-6.229333l-5.077334-4.821333-3.2-2.901334v-0.597333l-1.28-1.322667-1.621333-1.237333-0.64-0.682667c0-0.64-0.682667-0.64-1.237333-0.64l-1.962667-0.682666-0.64-0.64-2.602667-1.92-0.597333-0.682667-0.682667-0.64c-0.512-0.64-0.981333-0.64-1.28-0.64l-2.56-1.92-0.682666-0.682667-2.56-1.237333-0.469334-0.682667-1.92-1.237333-1.28-0.682667-1.28-1.237333-1.237333-1.322667h-0.682667a10.965333 10.965333 0 0 0-4.48-2.56l-1.877333-1.28-1.28-0.597333-0.682667-0.682667-1.92-1.28-1.877333-0.64-2.56-1.28-1.962667-0.64-0.64-0.682666-2.389333-0.597334v-0.512l-3.882667-1.28-2.56-1.28-1.28-0.64h-2.56c-1.28-0.64-1.92-0.64-3.2-1.28H563.2l-1.92-0.682666h-1.877333l-1.962667-0.597334-1.237333-0.682666h-2.602667l-2.602667-0.64-1.237333-0.682667h-7.04l-2.944-0.64H524.8l-1.962667-0.682667a12.288 12.288 0 0 1-3.84-2.56c-0.597333-1.28-1.92-2.56-2.56-3.797333-0.64-1.322667-1.28-2.602667-1.28-3.882667v-3.84a13.994667 13.994667 0 0 1 1.28-4.48c0.341333-0.64 0.64-1.28 1.28-1.92a8.533333 8.533333 0 0 1 3.2-3.2c0.64-0.64 1.28-0.64 1.877334-1.237333 1.322667-0.682667 2.602667-0.682667 3.882666-0.682667h2.56l-0.597333 2.346667z m19.370667 69.504c0.64 0 1.28 0 1.877333 0.170667 0.682667 0 1.322667 0 1.962667 0.085333l2.218666 0.213333c4.437333 0.384 9.088 1.024 13.568 1.962667l4.437334 0.981333 1.109333 0.341334 4.864 1.237333 2.517333 0.853333 1.962667 0.682667c1.92 0.597333 3.882667 1.92 5.76 2.56l0.682667 0.64 2.56 1.28 3.84 1.962667 1.237333 0.597333c0.682667 0.682667 1.322667 0.682667 1.962667 1.28 0.64 0.682667 1.92 1.28 2.56 1.92 2.602667 1.28 4.48 3.2 6.4 4.48l4.48 3.84 3.84 3.882667 2.602666 3.157333 1.237334 1.237333 1.28 1.322667 1.877333 2.56 3.882667 5.76 3.2 5.76 2.56 5.12 1.962666 4.48c1.877333 4.437333 2.56 8.32 3.84 12.757333 1.237333 3.882667 1.92 8.362667 2.56 12.16l0.64 6.4 0.682667 5.802667V418.133333c0 1.92-0.682667 3.2-1.28 4.48a10.368 10.368 0 0 1-3.2 3.84 11.605333 11.605333 0 0 1-4.48 2.602667c-1.237333 0.597333-2.56 0.597333-3.84 0.597333-1.237333 0-2.56 0-3.84-0.597333l-4.437333-1.962667c-1.28-1.28-2.56-1.92-3.882667-3.882666a35.968 35.968 0 0 1-1.92-4.437334v-7.082666l-0.64-4.48-0.64-5.077334-0.682667-4.48-0.682666-2.56c0-0.64-0.597333-1.92-0.597334-2.56-1.28-5.162667-3.84-10.24-6.4-15.36l-2.602666-2.56-2.005334-2.56-1.92-1.92-0.64-1.28-3.2-2.56-2.602666-2.602666-2.517334-1.92c-0.682667-0.64-1.28-0.64-2.602666-1.237334l-3.84-2.602666-2.602667-1.28-1.237333-0.64h-0.682667l-3.242667-1.322667-3.84-1.28-3.84-0.64h-3.2l-1.877333-0.64-1.493333-0.298667h-1.92l-2.56-0.682666h-10.88l-0.64-3.2h-1.664a9.386667 9.386667 0 0 1-3.413334-1.237334 12.672 12.672 0 0 1-3.84-3.413333 23.04 23.04 0 0 1-1.92-3.84 14.592 14.592 0 0 1-0.512-3.84c0-1.578667 0-3.2 0.64-4.821333a11.178667 11.178667 0 0 1 2.56-4.266667l2.602667-1.92a8.533333 8.533333 0 0 1 3.84-1.28l2.645333-3.2h1.365334z" fill="" /></svg>